<svg width="32" height="32" viewBox="0 0 32 32" fill="none" xmlns="http://www.w3.org/2000/svg">
<path d="M28.3162 7.05126L16.3162 3.05126C16.111 2.98283 15.889 2.98283 15.6838 3.05126L3.68375 7.05126C3.48463 7.11764 3.31145 7.24499 3.18873 7.41527C3.06601 7.58555 2.99998 7.79012 3 8.00001V18C3 18.2652 3.10536 18.5196 3.29289 18.7071C3.48043 18.8947 3.73478 19 4 19C4.26522 19 4.51957 18.8947 4.70711 18.7071C4.89464 18.5196 5 18.2652 5 18V9.38751L9.19875 10.7863C8.0832 12.5885 7.72846 14.7598 8.21242 16.8234C8.69638 18.887 9.97949 20.6742 11.78 21.7925C9.53 22.675 7.585 24.2713 6.1625 26.4538C6.08852 26.5637 6.03713 26.6873 6.01133 26.8173C5.98552 26.9473 5.98581 27.0811 6.01218 27.211C6.03854 27.3408 6.09046 27.4642 6.16492 27.5738C6.23937 27.6834 6.33488 27.7772 6.44588 27.8496C6.55688 27.922 6.68117 27.9716 6.81151 27.9955C6.94185 28.0195 7.07566 28.0173 7.20514 27.9891C7.33463 27.9608 7.45722 27.9072 7.56577 27.8311C7.67433 27.7551 7.7667 27.6583 7.8375 27.5463C9.72125 24.6563 12.6962 23 16 23C19.3037 23 22.2788 24.6563 24.1625 27.5463C24.3092 27.7643 24.5357 27.9158 24.7932 27.968C25.0507 28.0203 25.3184 27.9692 25.5385 27.8256C25.7586 27.6821 25.9133 27.4577 25.9692 27.201C26.0252 26.9443 25.9779 26.6759 25.8375 26.4538C24.415 24.2713 22.4625 22.675 20.22 21.7925C22.0188 20.6742 23.3007 18.8882 23.7846 16.8261C24.2684 14.764 23.9148 12.5942 22.8013 10.7925L28.3162 8.95501C28.5154 8.88867 28.6886 8.76134 28.8114 8.59106C28.9342 8.42078 29.0002 8.21618 29.0002 8.00626C29.0002 7.79634 28.9342 7.59175 28.8114 7.42147C28.6886 7.25118 28.5154 7.12385 28.3162 7.05751V7.05126ZM22 15C22.0003 15.9486 21.7756 16.8837 21.3445 17.7286C20.9134 18.5736 20.2881 19.3043 19.5199 19.8608C18.7517 20.4172 17.8625 20.7836 16.9253 20.9299C15.9881 21.0762 15.0295 20.9982 14.1283 20.7023C13.2271 20.4064 12.4088 19.901 11.7407 19.2277C11.0726 18.5543 10.5737 17.7321 10.2849 16.8286C9.99607 15.9251 9.92559 14.9659 10.0792 14.0299C10.2329 13.0938 10.6063 12.2076 11.1687 11.4438L15.6838 12.9438C15.889 13.0122 16.111 13.0122 16.3162 12.9438L20.8312 11.4438C21.591 12.4738 22.0006 13.7201 22 15ZM16 10.9463L7.1625 8.00001L16 5.05376L24.8375 8.00001L16 10.9463Z" fill="#696D7D"/>
</svg>
