<?xml version="1.0" encoding="UTF-8"?>
<svg xmlns="http://www.w3.org/2000/svg" viewBox="0 0 904.91 904.91">
  <defs>
    <style>
      .cls-1, .cls-2 {
        fill: #fff;
      }

      .cls-2 {
        stroke-width: 18px;
      }

      .cls-2, .cls-3, .cls-4 {
        stroke: #000;
        stroke-miterlimit: 10;
      }

      .cls-3, .cls-4 {
        fill: none;
        stroke-width: 2px;
      }

      .cls-4 {
        stroke-dasharray: 0 0 5.07 8.11;
      }
    </style>
  </defs>
  <g id="Layer_5" data-name="Layer 5">
    <circle class="cls-2" cx="452.46" cy="452.46" r="443.46"/>
  </g>
  <g id="Layer_4" data-name="Layer 4">
    <path d="M481.73,684.2c-3.58-13.75-6.57-25.2-9.52-36.66-.43-1.65-.8-3.33-.98-5.03-3.01-29.21-5.87-58.43-9.02-87.63-2.41-22.35-5.38-44.63-7.67-66.99-1.22-11.87-1.68-23.83-2.24-35.76-.84-18.09-1.52-36.19-2.13-54.28-.16-4.78,.47-9.6,.18-14.36-.19-3.15-2-6.24-1.97-9.35,.1-10.22,.71-20.43,1.1-30.65,.05-1.31,0-2.63,0-5.28-10.89,7.13-17.8,16.96-27.62,24.57,3.36,3.35,9.9,.02,9.77,6.48-.11,5.73-5.23,5.5-9.09,7.91,2.24,5.88,3.64,11.97,.17,18.12-3.31,5.86-5.45,6.34-11.24,2.77-4.4-2.71-6.49-8.48-12.7-9.02-1.19-.1-2.54-3.78-2.99-5.98-.87-4.25-1.16-8.63-1.8-13.86,3.23,2.14,5.66,3.75,8.53,5.66-1.02,1.42-2.3,2.58-2.76,4.01-.33,1.04,.41,3.5,.67,3.5,9.61-.04,11.96,8.17,17.22,15.38,1.31-4.28,2.54-7.68,3.33-11.18,.39-1.71-.54-2.18-2.43-3.32-3.91-2.35-2.29-6.81,2.38-8.95,2.45-1.13,4.89-2.27,7.31-3.45,.22-.11,.28-.56,.88-1.89-2.1,0-3.79-.21-5.39,.04-3.52,.57-7.01,1.38-10.51,2.09-.6-3.8-1.19-7.6-2.16-13.77-1.38,4.56-1.99,6.76-2.72,8.92-1.78,5.25,2.08,4.47,4.99,4.72-1.04,2.01-1.93,4.13-3.21,5.97-.35,.5-1.88,.18-2.87,.23,.11-6.68-10.48-5.44-9.63-11.55,4.9-3.68,9.07-6.81,13.74-10.31,1.88,.87,4.28,1.99,7.15,3.33,8.41-9.53,18.95-16.87,26.2-29.92-6.37,1.05-11.19,1.81-15.99,2.65-4.03,.71-5.49,3.36-7.59,6.93-4,6.8-9.65,12.94-18.39,16.2-1.3-2.25-2.71-4.42-3.85-6.73-3.02-6.1-4.03-6.43-9.9-2.69-1.4,.89-2.68,1.97-4.43,3.27q1.3-6.32,11.18-12.72c-9.06,1.53-17.92,5.31-27.53,2.95-.18-8.09,6.89-12.07,10.74-18.93-7.16,1.68-13.82,2.81-20.15,4.94-2.52,.85-4.42,3.78-6.42,5.93-2.75,2.97-5.04,6.45-8.08,9.07-2.26,1.95-4.62,2.38-5.68-2.13-.84-3.59-1.62,2.82-3.11,.59-.93-1.39-1.32-3.66-2.55-4.22-1.57-.72-3.77-.3-5.65-.04-3.18,.44-4.34-1.22-4.69-3.98,2.61-.58,5.37-.77,7.78-1.8,5.35-2.28,10.12-2.04,14.03,2.67,3.02-4.15,1.8-6.52-2.18-6.87-7.24-.64-13.99,.99-19.53,6.12-1.65,.23-3.31,.47-6.17,.87,1.03-1.9,1.4-3.74,2.48-4.34,5.36-3.02,11.22-5.23,16.26-8.68,3.74-2.56,3.12-2.55,15.18,.77,4.79,1.32,10.64-.68,15.89-1.77,2.92-.61,5.58-2.45,8.85-3.96-.46-3.29-.9-6.45-1.57-11.27,3.06,3.41,4.84,5.86,7.08,7.77,2.59,2.2,5.59,3.92,9.46,6.56-3.09,3.24-6.01,6.29-8.92,9.35-2.78,2.91-5.55,5.82-9.47,9.93,13.74,.88,22.07-4.53,28.4-14.97-4.02,10.73,1.59,19.52,3.46,29.16,8.32-6.66,12.33-19.88,9.78-32.91,3.98-.46,8.04-.39,11.75-1.51,3.39-1.02,6.39-3.32,10.2-5.41-10.67-5.75-20.61-3.48-30.49-2.22,14.9-5.67,16.55-17.29,13.84-30.91-2.64-1.2-5.34-2.42-9.1-4.12-.63,3.34-2.43,6.8-1.39,8.74,1.59,2.95,1.09,4.93-.03,7.47-1.51,3.43-2.9,6.92-4.15,10.45-1.01,2.85-2.4,5.89,.99,8.27,.89,2.38,2.56,4.82,2.36,7.1-.1,1.23-3.33,2.79-5.28,3.01-.87,.1-3.02-2.8-2.93-4.23,.22-3.64,1.91-6.93-2.78-9.53-4.66-2.58-8.94-2.82-13.6-.85-1.03,.44-1.95,1.15-4.59,2.74,2.32-7.01,6.53-6.18,10.32-6.87,3.57-.65,7.89,3.68,11.25-1.93-10.19-3.98-20.07-7.84-30.24-11.82-4.01,5.99-8.03,11.79-16.85,9.23-2.43-3.39,.97-10.56-8.95-9.85,.73-.83,1.46-1.67,2.19-2.5,2.6-.96,5.2-1.92,8.38-3.09,.94,4.26,1.71,7.76,2.5,11.33,8.11-.96,7.19-6.46,6.93-11.59,6.55-2.25,13.68-3.59,17.58-10.8-11.61-1.72-15.9,1.09-17.45,10.93-1.66,.24-3.32,.47-4.42,.63,.92-6.65,1.84-13.39,2.84-20.61,5.07,2.09,10.49,5.88,17.57,4.72,3.46-.57,5.18,3.16,4.05,6.65-1.04,3.2-2.8,6.17-4.12,8.98,5.14,.28,10.52,.09,15.71,1.02,4.28,.76,5.76-1.46,6.67-4.52,2.84-9.58,2.74-9.59,11.45-6.56,1.12,.39,2.36,.39,4.28-.06-5.88-3.36-3.44-9.86-6.56-15.01-1.54,1.29-2.71,2.35-3.96,3.29-.97,.73-2.85,1.98-2.95,1.85-3.88-4.65-6.1-.36-8.37,2.47-3.04-5.85,.85-8.25,4.05-11.55-6.47-7.48-12.91-14.91-19.17-22.14-15.57,3.75-12.63,3.13-23.97-10.05,5.33,3.87,11.01,5.42,17.24,3.14-1.42,1.77-2.84,3.53-4.92,6.13,3-.63,5.42-.43,6.7-1.55,3.11-2.7,.73-3.81-1.93-4.46,3.52-5.68,3.46-5.66,1.63-11.94-.82-2.81-1.32-5.72-2.1-9.16,6.85-.46,9.55,3.67,11.91,7.6,2.99,5,1.38,9.88-1.36,13.57,7.29,9.4,14.27,18.55,21.48,27.53,1.14,1.42,3.63,3.23,4.88,2.85,5.09-1.56,6.03,1.74,6.7,5.13,.56,2.83,1.08,5.11,4.28,6.25,1.2,.43,2.58,2.72,2.48,4.06-.76,10.47,7.92,14.17,13.89,19.74,1.84,1.72,4.42,2.65,8.12,4.78-1.11-5.49-1.09-10.23-5.1-11.93-5.71-2.42-5.42-6.12-4.17-10.73,.26-.96,.31-1.98,.44-2.89-3.18-1.45-6.46-2.48-9.17-4.33-2.46-1.68-4.72-3.83-2.13-7.67,.94-1.4,.29-4.55-.64-6.39-2.62-5.15-5.76-10.04-8.54-14.76-4.9,1.15-9.34,2.19-13.78,3.23-.2-.51-.39-1.02-.59-1.53,2.51-1.94,4.77-4.48,7.59-5.67,3.57-1.51,1.59-6.26,5.76-7.7,2.45-.85,3.79-4.9,6.82-9.2-3.98,.94-6.04,1.42-8.44,1.99-2.3-5.43-4.59-10.85-6.89-16.27,.61-.3,1.21-.6,1.82-.9,1.95,3.39,3.91,6.78,6.24,10.82,1.33-.49,2.76-1.38,4.24-1.48,7.37-.52,10.66,5.09,7.15,12.28-.88,1.79-2.36,3.35-3.79,4.79-1.39,1.4-3.06,2.51-4.8,3.9,3.59,6.07,6.98,11.98,10.56,17.76,1.59,2.56,1.77,2.45,8.07,1.88,0-3.59-.64-7.37,.14-10.83,1.46-6.51,1.85-12.21-5.02-16.01-.5-.28-.06-2.26-.06-3.45,7.44,1.96,2.31-7.15,8.59-7.24,7.76,2.32,8.13,3.45,1.89,13.03,2.92,1.97,5.86,3.95,9.38,6.32,.65-12.17,1.37-23.38,1.79-34.61,.12-3.3-.6-6.63-.94-9.94l-.11,.13c2.63-.13,5.3-.61,7.87-.31,6.15,.71,8.49-.57,11.59-7.45-3.91,1.3-7.51,2.51-12.75,4.25,7.73-8.5,5.9-16.41,4.32-25.52-7.82,5.13-4.75,14.67-11.19,20.38-1.59-3.7-2.89-6.71-4.19-9.73l.61-.51c1.2,.6,2.4,1.2,3.88,1.94,1.8-4.05,3.15-8.23,5.46-11.8,1.05-1.63,3.95-2.63,6.06-2.72,.85-.04,2.19,3.02,2.7,4.84,1.19,4.23,2.02,8.57,3.16,13.59,2.15-.77,4.21-1.51,6.29-2.25,4.4,7.57,4.66,11.33-.9,15.97-5.25,4.39-8.66,12.11-17.82,10.76v30.83c5.65-.9,10.85-1.73,16.05-2.56,.03-.48,.05-.96,.08-1.43-1.21-.2-2.41-.39-5.06-.82,9.08-5.26,1.4-14.45,6.59-21.24,2.51,1.03,4.88,2,7.56,3.1,2.56-3.94,5.14-7.92,7.49-11.52,9.63,4.58,3.14,15.5,8.39,23.55,4.37-8.8,7.97-16.03,11.56-23.26l-.14,.13c3.86-4.13,7.72-8.26,13.25-14.18,0,6.49,.7,10.41,4.1,13.26,3.18,2.67,6.32,4.82,11.18,3.8-.77-7.83-6.68-10.99-11.85-15.6,7.2-5.14,13.53-10.71,11.59-21.75-4.32,3.54-8.05,6.6-11.78,9.65l.09,.13c1.69-6.97,6.74-10.7,12.76-13.52,5.1,6.58,4.72,9.63-3.3,27.31,3.76,4.54,7.77,9.21,8.33,15.62-9.72,2.67-10.22,2.58-21.18-3.42q-5.49,11-14.7,10.36c-1.72,3.42-3.55,7.04-5.23,10.36,.35,1.05,.39,1.8,.79,2.22,1.9,2.02,7.11,1.9,5.35,6.07-1.14,2.7-4.51,6.27-6.93,6.3-7.74,.11-9.51,5.35-11.8,11.52,4.06,2.23,9.17,4,10.23,9.45,.7,3.63,1.07,7.41,.89,11.08-.05,.9-2.86,1.65-5.33,2.97-.69-6.24-1.27-11.43-1.95-17.56q-4.93,5.31-7.98,22.59c-5.4,1.84-10.75,3.65-16.1,5.47,.08,.6,.17,1.19,.25,1.79,5.13,.64,10.27,1.27,16.74,2.07v27.59c13.57-3.04,26.31-5.9,39.06-8.76l.11,.15c-.04,4.79-3.71,5.43-7.19,6.83-4.75,1.91-10.65,2.06-13.39,7.59-6.63-4.1-12.52-.46-18.31,2.09-2.9,1.28-5.26,3.8-7.86,5.76,2.35,2.75,4.3,6.1,7.19,8.07,2.3,1.57,5.73,1.5,8.67,2.13,6.44,1.37,8.16-3.54,11.5-7.49,4.2-4.97-.08-7.3-1.33-10.7,.68-.03,1.63-.38,2.01-.05,4.99,4.2,9.7,3.36,14.87-1.8,1.98,5.17,4.83,8.64,10.03,9.17,4.45,.45,8.87,1.19,14.28,1.93,0,3.51,.75,8.62-.23,13.38-.85,4.13-3.09,8.33-5.79,11.62-2.34,2.86-5.87,5.21-10.38,2.58-.99-.58-3.11,.77-4.58,1.2,.45,4.46,1.32,8.52,1.12,12.52-.16,3.27-.86,7.01-2.7,9.56-1.78,2.48-5.2,4.92-8.09,5.18-3.77,.34-3.74-3.99-4.67-6.87-.7-2.18-2.02-4.17-3.02-6.14-4.05,.96-7.6,1.81-11.15,2.6-.2,.04-.5-.42-.9-.78,3.5-3.28,6.83-6.78,10.56-9.77,2.51-2.01,5.46-1.55,6.7,1.69,1.45,3.77,2.28,7.79,3.62,12.55,1.1-8.03,2.09-15.21,3.19-23.25,8.52-.72,16.42-4.3,22.06-12.78-8.31-1.54-14.61-.44-22.99,3.99,.98-7.88,1.89-15.22,2.94-23.65-7.42,3.44-10.88,8.81-13.48,14.13-2.16,4.42-4.23,6.51-9.15,5.92-1.37-.17-2.93,1.21-4.4,1.87-1,.03-2,.06-3,.08-2.4,.04-5.37,.15-4.74,3.34,.32,1.64,2.87,3.78,4.62,4,2.53,.32,5.25-.9,8.34-1.57-2.36-2.63-3.87-4.31-5.37-5.98,.68,.08,1.44-.02,2.02,.26,7.88,3.72,8.09,5.75,1.15,10.97-.81,.61-1.74,1.08-2.61,1.61-.35-.32-.7-.64-1.05-.97-5.03-2.51-10.05-5.02-15.68-7.84,1.71-3.14,2.91-5.33,4.1-7.52-11.78-5.02-16.65-2.29-16.42,9.68,.55,27.37,1.09,54.75,2.21,82.1,.82,20.12,2.25,40.23,3.95,60.3,1.5,17.67,3.7,35.27,5.67,52.9,2.17,19.34,3.91,38.75,6.8,57.98,3.65,24.25,8.14,48.38,12.56,72.51"/>
    <path class="cls-1" d="M483.24,253.71c6.63-9.37,6.65-9.55,.33-18.69-.49,3.72-1.07,6.18-1.06,8.64,.02,3.36,.5,6.72,.78,10.08-2.41,4.38-4.83,8.76-7.24,13.14,.72,.45,1.45,.9,2.17,1.35,1.61-2.15,3.83-4.09,4.67-6.51,.84-2.42,.3-5.32,.36-8.01Z"/>
    <path class="cls-1" d="M472.75,297.35c2.81-3.55,5.63-7.09,9.26-11.67-4.69-.91-7.83-1.52-11.39-2.21-1.54,5.6-3.59,10.57,.73,15.36-5.57,9.53-13.15,15.3-27.16,11.98,10.17,5.6,10.37,11.12,1.81,25.4,9.27-7.67,17.07-13.7,27.86-14.33-2.72-4.27-4.82-7.59-7.06-11.11,3.05-4.17,5.86-7.99,8.66-11.82-.9-.53-1.81-1.07-2.71-1.6Z"/>
    <path class="cls-1" d="M481.24,650.33c.44,0,.88,.02,1.33,.03,.16-3.85,.8-7.78,.37-11.52-.88-7.78-2.76-15.39-3.47-23.19-2.17-23.71-3.91-47.48-5.96-71.2-.73-8.46-2.18-16.83-2.78-25.3-1.17-16.65-2.09-33.33-2.91-50.01-.97-19.76-1.7-39.54-2.58-59.3-.41-9.21-.85-18.42-1.43-27.61-.13-1.99-.66-4.07-1.41-5.84-1.63-3.85-2.24-7.51-.61-11.73,.61-1.57,.14-3.78,.18-7.5-9.05,7.66-7.41,17.65-6.84,27.17,.35-2.76,.69-5.52,1.04-8.28,.8,10.73,.08,21.22-.61,31.72-1.46,22.29,1.25,44.32,2.74,66.4,1.45,21.37,3.56,42.66,5.53,63.97,1.63,17.61,3.34,35.21,5.32,52.76,1.49,13.17,3.38,26.26,5.27,39.35,.86,5.96,2.17,11.83,3.65,19.71,.92-4.16,1.33-6,2.23-10.03,.44,5.04,.68,7.73,.92,10.41Z"/>
    <path class="cls-1" d="M442.59,250.83c-4.35,1.76-9.15,3.7-13.99,5.65,3.61,7.18,8.21,3.35,12.23,3.04,3.18-.25,5.05-1.92,5.09-5.21,.07-4.35,3.04-4.36,6.28-4.84,2.82-.42,6.9-1.18,7.93-3.12,2.87-5.37,5.61-11.25,3.62-18.42-7.16,3.85-10.71,9.95-14.63,15.69-4.62-4.08,1.54-12.35-6.54-16.29v23.5Z"/>
    <path class="cls-1" d="M505.34,221.78c-3.02-1.34-5.32-2.41-7.66-3.39q-6.54-2.72-5.3-9.7c.68-3.86,1.99-7.84-1.8-12.41-2.5,5.97-4.61,11.02-6.83,16.35-2.33-2.17-3.92-3.65-6.09-5.67-1.01,4.74,.67,8.51,3.32,9.81,5.95,2.92,5.77,7.38,5.11,12.53-.02,.16,1.06,.45,1.97,.83,.76-3.5,1.5-6.93,2.55-11.75,4.44,4.39,8.12,9.53,14.74,3.41Z"/>
    <path class="cls-1" d="M449.15,267.35c.35,.37,.7,.74,1.05,1.1-1.7,2.41-3.39,4.81-5.13,7.27,2.87,3.9,5.46,7.42,8.9,12.09-.71-7.43-1.49-13.16-1.64-18.91-.04-1.56,2.58-4.61,2.7-4.55,5.58,2.95,7.47-2.79,10.97-4.51-.88-7.56-7.28-5.56-12.94-7.18,1.13,7.24-11.98,6.78-7.88,16.19,1.47-.57,2.72-1.05,3.97-1.53Z"/>
    <path class="cls-1" d="M478.91,228.65h-9.15c-3.6,11.3-3.45,22.31,.16,33.75,5.96-10.66,8.96-21.73,8.99-33.75Z"/>
    <path class="cls-1" d="M424.18,281.6v19.98c7.51,1.95,15.27,3.96,25.61,6.64-9.17-9.53-16.65-17.3-25.61-26.62Z"/>
    <path class="cls-1" d="M456.59,268.29c1.62,6.72,2.85,11.85,4.08,16.97,3.05-4.84,1.35-10.78,7.32-14.89-4.35-.79-7.12-1.3-11.4-2.08Z"/>
    <path class="cls-1" d="M422,324.51c.37,.68,.73,1.37,1.1,2.05,6.59-2.5,13.21-4.96,19.76-7.56,.79-.31,1.27-1.4,2.93-3.35-10.03,.42-15.9,7.21-23.79,8.87Z"/>
    <path d="M406.41,285.07c-7.71-.9-14.58-1.7-21.45-2.5,4.33,2.82,8.9,4.22,13.02,6.46,4.44,2.41,6.05,.07,8.42-3.96Z"/>
    <path d="M537.84,327.56c.19-1.06,.37-2.11,.56-3.17-2.95-.84-5.86-1.87-8.87-2.38-.65-.11-2.21,1.61-2.26,2.55-.06,.96,1.13,2.76,1.94,2.86,2.84,.36,5.75,.14,8.63,.14Z"/>
    <path d="M484.62,308.56c-1.51-2.7-2.55-4.57-3.96-7.1-1.84,2.69-3.23,4.51-4.34,6.48-.35,.62,.04,1.66,.12,2.99,2.63-.76,4.79-1.39,8.18-2.37Z"/>
    <path d="M520.53,188.05c-6.52,3.67-6.73,7.82-5.29,14.94,2.09-5.9,3.42-9.67,5.29-14.94Z"/>
    <path d="M501.73,276.43c2.08,4.29,4.93,6.95,10.28,6.2,3.6-.51,7.33-.1,12.24-.1-3.52-7.54-8.33-10.36-17.05-10.4,6.7-3.47,11.56-5.84,12.92-11.94-5.27-4.48-10.38,.95-16.27-.11,5.26-7.43,13.04-2.76,18.8-5.15,.17-1.47,.33-2.93,.58-5.14,3.4,2.81,6.41,3.96,2.95,8.59-2.63,3.52-3.08,8.67-4.86,14.22,11.3-.54,20.44-3.93,29.81-6.22,3.83-.94,4.52-3.9,5.19-6.82,1.67-7.27,6.82-11.71,12.56-15.49,5.82-3.83,10.52-1.29,11.06,5.84,.3,3.98,.02,8.01,0,12.02-4.16,.81-8.32,1.63-12.48,2.44,1.32-6.39,10.06-9.93,7.17-18.15-7.06,3.4-7.76,3.97-12.37,11.51-.98,1.6-2.28,3.94-1.75,5.26,.59,1.48,3.1,2.19,4.78,3.24,0,2.68-.32,5.41,.13,8.01,.24,1.34,1.86,2.44,2.86,3.65,1.12-1.01,2.76-1.82,3.23-3.08,.9-2.41,1.14-5.07,1.75-8.12,2.05,.66,3.99,1.28,6.08,1.96,.28-2.62,.49-4.63,.7-6.63,5.67,2.48,6.77,7.21,5.61,12.56-.88,4.04-3.6,3-6.18,1.24-1.48,5.31-2.96,10.59-4.74,16.96-10.59-5.8-13.1-14.75-15.37-23.85-9.17,2.15-18.37,4.2-27.49,6.57-1.37,.36-2.92,1.99-3.42,3.38-2.45,6.85-7.16,9.53-14.29,8.97-3.31-.26-6.67,.28-9.38,.43-4.23,5.25-8.2,10.19-12.17,15.12-.79-.46-1.57-.92-2.36-1.37,6.79-7.43,9.75-16.37,11.59-25.74l-.12,.15Z"/>
    <path d="M526.43,296.89c3.25-4.02,8.44-5.59,11.64-10.09,2.14-3.02,7.08-6.76,10.02,.63,.26,.65,1.74,.83,2.66,1.22,2.04,.88,5.43,1.36,5.83,2.71,.79,2.72,.2,5.96-.32,8.89-.28,1.57-1.95,2.86-2.39,4.45-1.11,3.99,1.62,6.68,5.6,5.56,2.93-.83,5.76-2.02,8.61-3.04q2.54,5.53,1.01,13.43c.49,.46,.92,1.02,1.48,1.36,3.7,2.25,7.57,5.73,6.16,9.59-1.09,3-5.85,6.06-9.3,6.49-6.34,.78-6.73,7.55-11.49,9.4q-6.88-7.71-6.15-16.2c2.18,2.92,4.05,5.44,5.97,8.01,3.64-3.32-2.86-8.56,2.29-10.13,2.71-.83,6.31,1.61,9.58,2.1,1.74,.26,3.63-.49,6.31-.93-4.93-7.42-11.17-6.89-19.8-4.46,5.05-5.14,8.32-8.47,12.74-12.97-7.96-1.19-11.22,4.65-15.96,5.5-3.7-.89,3.8-4.1-1.54-4.95-3.49-.56-6.76-2.51-9.71-5.77,2.86,.18,5.72,.35,9.86,.61-2.17-2.94-3.64-4.93-5.2-7.04,1.88-1.67,3.76-3.35,6.99-6.23-5.1,.22-8.35,.37-12.52,.55,1.72-2.88,3.16-5.29,4.6-7.69-.37-.35-.73-.7-1.1-1.06-1.89,2.03-3.84,4.02-5.66,6.11-2.69,3.1-5.07,6.8-10.09,4.1l-.11-.15Z"/>
    <path d="M531.11,253.98c-.71-3.22-1.51-6.8-2.56-11.55,4.64-.66,8.79-1.25,13.08-1.86q-3.03-3.91-9.77-4.32c.97-4.39,1.95-8.79,2.92-13.19-.47-.27-.93-.53-1.4-.8-2.26,2.53-4.51,5.05-7.24,8.1-2.84-1.51-5.67-3.02-9.59-5.11,.98,4.96,1.73,8.81,2.5,12.71h7.81c-4.11,7.99-10.83,11.2-18.06,15.3-.5-3.7,3.55-7.4-.52-10.04,3.96-5.69,6.25-11.87,5.86-18.94-.02-.44,1.84-1.58,2.47-1.36,5.39,1.84,8.87-1.74,12.87-4.1,4.94-2.92,7.57-1.99,7.37,3.31-.24,6.47,1.54,10.73,7.45,13.89,3.5,1.87,2.78,5.1-1.03,8.19-3.79,3.07-7.61,6.12-12.16,9.77Z"/>
    <path d="M408.82,226.39c-2.58,.44-4.14,1.23-5.17,.79-3.59-1.56-9.07-2.82-9.99-5.52-1.6-4.66,3.74-6.19,7.48-7.77,.55-.23,.89-.95,1.32-1.44-.57-4.14-1.13-8.28-1.7-12.42,.52-.1,1.03-.21,1.55-.31,2.17,5.58,4.34,11.17,6.78,17.45-3.31,.95-6.28,1.8-10.99,3.15,4.26,2.41,6.99,3.95,10.73,6.07Z"/>
    <path d="M510.08,191.93c-3.57-1.12-7.31-1.87-10.65-3.46-4.45-2.1-4.93-6.43-1.55-9.99,.47-.49,.98-1.17,1.57-1.29,9.06-1.72,11.89-7.81,11.62-16.24,1.03,5.23,2.05,10.45,3.19,16.22-5.34,.97-12.14-.28-16.22,6.29,1.81,2.8,4.2,4.33,7.6,3.36,5.63-1.6,4.47,2.18,4.32,5.23l.14-.13Z"/>
    <path d="M526.44,167.25c-1.41,2.51-2.82,5.02-4.49,7.97-3.2-8.27-5.95-15.4-8.99-23.26,8.17,2.36,8.77,10.83,13.57,15.42,0,0-.09-.13-.09-.13Z"/>
    <path d="M452.46,183.7c-2.61-.59-5.25-1.04-7.81-1.8-3.29-.97-4.2-1.93-3.73-6.54,.56-5.58-1.42-11.61-.14-18.12,5.05,1.05,6.9,3.92,7.83,7.7l-.61,.51c-1.55-1.07-3.1-2.14-5.71-3.95,.26,9.14,.54,16.66,9.11,20.6,.48,.22,.64,1.14,.95,1.73l.11-.13Z"/>
    <path d="M496.07,348.82c-1.76,5.69-6.7,10.55-2.82,18.7-3.03-1.38-5.08-1.85-5.1-2.4-.24-6.71,1.75-12.64,6.87-17.27,.35,.33,.7,.65,1.05,.97Z"/>
    <path d="M501.85,276.27c-1.15,.65-2.38,1.93-3.43,1.8-1.61-.2-3.59-1.04-4.45-2.27-.48-.69,.7-3.63,1.67-3.95,1.42-.48,3.55,.1,4.95,.95,.82,.49,.79,2.38,1.14,3.64,0,0,.12-.15,.12-.15Z"/>
    <path d="M368.11,204.24c.93-.88,1.87-1.76,3.75-3.53,.08,5.53,2.78,10.42-2.98,13.94-.35-3.72-.66-6.97-.97-10.22l.2-.19Z"/>
    <path d="M356.94,273.69c-2.76,.8-5.22,1.51-7.98,2.3q1.81-7.77,7.98-2.3Z"/>
    <path d="M509.08,343.63c.51-2.76,.98-5.51,4.61-4.93,.78,.13,2,2.11,1.79,2.92-.94,3.65-3.5,3.29-6.4,2.01Z"/>
    <path d="M367.91,204.42c-1.84-.26-3.68-.57-5.53-.74-.73-.07-1.49,.2-2.23,.32,.03-1.33-.22-2.75,.19-3.95,.2-.6,2.05-1.35,2.37-1.09,1.93,1.61,3.63,3.49,5.41,5.27l-.2,.19Z"/>
    <path d="M448.33,189.7c-3.55-1.34-7.9-1.26-10.48-7.58,4.66,2.35,7.94,4.01,11.23,5.66l-.75,1.92Z"/>
  </g>
  <g id="Layer_6" data-name="Layer 6">
    <path class="cls-1" d="M477.36,425.79s-20.86,14.07-33.16,40.61c-7.06,15.23,10.45,123.33,10.45,123.33,0,0,10.41,3.01,33.61,0,19.64-2.55-10.9-163.94-10.9-163.94Z"/>
    <polygon class="cls-1" points="480.32 639.92 488.26 635.82 477.77 556.19 524.64 658.41 514.47 703.58 451.33 715.44 480.32 639.92"/>
  </g>
  <g id="Layer_7" data-name="Layer 7">
    <path d="M722.58,344.83c-.66,1.26-1.08,2.66-1.96,3.65-2.04,2.29-2.28,3.31-.86,6.2,.15,.3,.08,.71,.16,1.52-3.99-2.48-2.87-6.64-4.23-9.87-1.42,.43-2.74,1.02-4.11,1.19-1.42,.18-2.89-.11-4.33-.08-2.78,.06-4.62-1.59-6.35-3.43-1.72-1.82-2.84-3.6-2.63-6.53,.24-3.29,.08-6.55,1.67-9.71-3.06,1-5.99,1.95-9.35,3.05,1.79-3.03,5-4.16,7.15-6.36-2.98-2.8-5.44-5.71-5.9-9.81-.03-.3-.09-.65-.25-.89-2.2-3.3-1.03-6.61,.18-9.77,.9-2.36,1.31-5.05,3.44-6.82,.54-.45,1.15-.85,1.62-1.36,.57-.62,1.38-1.28,1.5-2.02,.62-3.82,3.21-6.22,5.99-8.38,2.37-1.84,4.54-1.08,6.2,1.43,3.44,5.2,4.76,11.19,6.62,16.98,.44,1.37,.39,3.13,2.3,3.55,1.85-2.28-.16-4.19-.43-6.28,2.8,1.19,4.81,6.28,4.57,11.37,1.72,1.75,3.89,.16,6.11,.88,.27-2.67,.52-5.12,.77-7.58,.26,.02,.52,.04,.78,.06-.04,2.04-.08,4.09-.13,6.13-.07,2.41,1.12,4.27,3.49,5.04,2.1,.68,4.27,1.16,7.1,1.91-3.22,1.02-5.41-.64-7.9-.81-.44,1.25-.88,2.47-1.35,3.8,2,.94,4.02,1.91,6.06,2.84,2.11,.96,4,2.04,4.72,4.55,.19,.67,1.27,1.29,2.07,1.56,5.19,1.75,9.57,4.84,13.74,8.27,.95,.78,1.81,1.71,2.57,2.68,2.25,2.84,1.91,4.99-1.09,7.02-.68,.46-1.44,.92-2.22,1.08-3.41,.7-6.88,1.13-10.24,1.99-2.34,.6-4.66,1.52-6.78,2.68-3.04,1.66-6.27,1.01-9.42,1.21-.86,.05-2.06-.69-2.62-1.43-2.39-3.2-4.6-6.55-6.65-9.52Zm-12.43-6.68c-.31,.72-.67,1.43-.92,2.18-.4,1.17,.48,3.65,1.53,4.02,1.33,.47,2.26,.02,2.9-1.41,.32-.71,1.35-1.11,2.03-1.62-.84-1.11-1.56-2.13-2.35-3.09-1.02-1.24-2.11-1-3.19-.06,.27-.75,.53-1.5,.8-2.25-1.36,1.22-3.18,1.9-3.94,4.4,1.41-.97,2.28-1.57,3.15-2.17Zm19.49-9.3c.55,3.04,3.13,5.52,6.63,5.9,6.39,.71,11.63,4.01,16.99,7.1,.18,.1,.19,.49,.27,.71-1.97,1.61-2.94-.89-5.26-1.13,1.63,1.88,2.81,3.25,4.19,4.84-2.7,1.11-4.28,.37-5.48-1.76-.85-1.51-4.24-1.33-2.8-4.28-.53-.05-.96-.08-1.68-.15,.68-.52,1.05-.8,1.42-1.08-3.33,1.47-5.38-1.42-8.5-2.46,2.78,4.48,5.36,8.63,7.94,12.79,2.59-1.31,2.56-1.27,4.98,.72,.46,.38,1.35,.5,1.97,.37,2.52-.53,5.01-1.2,7.71-1.87-.56-.44-1-.79-1.4-1.1,.59-1.18,1.14-2.28,1.52-3.03-.68-1.36-1.2-2.42-1.8-3.62,.84-.15,1.52-.28,2.2-.4-2.11-.21-4.25,.13-5.54-2.09,.48-.31,.9-.58,1.37-.88-2.31-2.97-5.43-3.85-8.63-4.89-2.76-.9-5.62-.78-8.94-1.44,1.14-.5,1.74-.76,2.93-1.29-4.86,.96-6.77,.72-10.03-1.04-.14-1.17-.84-2.73-.34-3.44,2.17-3.08-.64-4.79-1.78-6.76-.41-.71-2.51-.45-4.26-.69,.89,1.25,1.38,1.94,1.87,2.63l-.52,.49c-1.28-1.15-2.57-2.3-3.87-3.48-.29,.22-.74,.55-1.22,.9,.96,.7,1.84,1.34,2.82,2.07-.69,.43-1.18,.73-1.76,1.1,.27,.74,.32,1.64,.79,2.02,2.12,1.73,3.45,3.92,4.18,6.95,.22-1.15,.34-1.77,.45-2.4,.99,2.25,2.35,1.1,3.58,.66Zm3.44,18.03c-1.04-1.02-1.97-1.93-2.89-2.83-.24,.09-.48,.17-.72,.26,.27,1.95,.54,3.91,.81,5.86-.08,.13-.16,.26-.24,.39-.23-.4-.46-.8-.69-1.19,.49,5.38,3.06,6.6,7.09,3.95,.89-.59,2.02-.83,2.43-.99,.77-1.43,1.31-2.42,1.82-3.38-.45-.14-1.21-.37-1.92-.58,.36-2.52-1.08-4.5-1.59-6.65-.55-2.33-2.32-4.44-4.46-6.04-2.82,4.71,1.75,6.85,3.26,9.95-1.05,.46-1.88,.82-2.92,1.27Zm-25.28-57.3c-.23,.17-.46,.34-.69,.52,.64,3.22,1.33,6.42,1.91,9.65,.76,4.24,3.04,8.08,2.99,12.57-.02,1.51,.76,3.37,2.46,4.23,1.98-1.72-1.19-5.19,2.45-6.12-.76-.52-1.51-1.02-2.15-1.45,.51-1.84,1.63-3.64,1.27-5.08-.6-2.44-2.05-4.69-3.28-6.94-1.02-1.88-2.2-3.67-3.37-5.46-.45-.69-1.07-1.27-1.61-1.9Zm2.67,26.7c-5.22-3.9-10.38-7.76-15.98-11.94,.49,1.23,.76,2.17,1.22,2.99,.95,1.7,2.16,3.27,3,5.03,1.28,2.68,3.39,3.67,6.2,3.7,1.82,.02,3.64,.14,5.57,.22Zm-14.54-14.02c3.18,.97,4.13,3.93,5.87,6.13,1.21,1.53,2.46,2.82,4.46,3.71-.3-1.71-.48-2.99-.75-4.25-.38-1.79-.63-3.64-1.32-5.3-.35-.86-1.48-1.86-2.35-1.95-1.96-.2-4.31-1.32-5.92,1.67Zm6.02,23.09c.19-.13,.37-.26,.56-.39-.8-.65,.66-2.13-1.31-2.35,.05-.29,.14-.59,.13-.88-.01-.33-.13-.65-.23-1.14,1.11-.49,2.29-.75,3.74,.2,1.31,.86,2.89,1.01,4.3-.78-3.77-1.04-6.62-4.07-10.73-3.55q-.27,3.5-2.59,5.03c2.13,1.34,4.13,2.6,6.13,3.86Zm6.13-23.63c.19-.23,.39-.46,.58-.7-.76-1.01-1.53-2.02-2.33-3.07l1.31-.32c-1.59-1.37-3.75-1.93-3.98-4.28-.02-.19-1.27-.48-1.87-.35-2.14,.44-2.74,2.1-2.85,4.29,2.02-.72,3.21,.52,4.6,1.68,1.34,1.13,3.02,1.85,4.55,2.76Zm19.35,44.29c1.56-2.83,.81-6.7-1.95-10.24,.03,1.04,.23,2.06,.43,3.08,.15,.77,.67,1.69,.41,2.27-.87,1.98,.57,3.15,1.11,4.89Zm-29.89-30.74c-1.83-1.9-3.68-3.82-5.74-5.97,.64,2.59,1.18,4.74,1.73,6.97l4.02-1Zm23.81,23.93c-1.14-1.08-2.35-2.23-3.57-3.38-.19,.07-.38,.15-.57,.22,.71,2.19,1.42,4.39,2.13,6.58,.22-.01,.45-.02,.67-.03,.42-1.06,.84-2.12,1.34-3.38Zm-13.57,5.72c.65-2.47,.56-2.62-2.82-4.07-.01,1.09-.03,2.04-.04,2.95,1.07,.42,1.96,.77,2.86,1.12Zm-2.74-8.33c.36-1.2,.7-2.35,1.04-3.49-1.98,2.8-2.3,2.25-4.38,1.16-.05,2.41,2.32,1.3,3.34,2.33Zm32.39-8.71c1.31,.33,2.26,.56,3.62,.9-.98-1.95-1.85-2.58-3.62-.9Z"/>
    <g>
      <path class="cls-3" d="M692.39,350.61s-.7,.52-2.03,1.46"/>
      <path class="cls-4" d="M683.69,356.68c-18.04,12.2-61.34,39.38-102.74,49.57"/>
      <path class="cls-3" d="M577,407.18c-.82,.18-1.63,.35-2.44,.52"/>
    </g>
  </g>
  <g id="Layer_2" data-name="Layer 2">
    <g>
      <path d="M101.9,475.83c.92,0,1.76-.11,2.53-.34,.77-.23,1.61-.34,2.53-.34,4.6,0,9.77-1.22,15.52-3.68,5.75-2.45,11.03-5.52,15.86-9.2,4.83-3.68,8.74-7.74,11.72-12.18,2.99-4.44,4.1-8.74,3.33-12.87-2.15-4.75-5.4-8.35-9.77-10.8-4.37-2.45-9.46-4.02-15.29-4.71-5.83-.69-11.99-.61-18.51,.23-6.52,.84-12.95,2.15-19.31,3.91-6.36,1.76-12.34,3.91-17.93,6.44-5.6,2.53-10.23,5.17-13.91,7.93-1.69,.61-2.64,.19-2.87-1.26-.23-1.46-.08-3.22,.46-5.29,.54-2.07,1.3-4.14,2.3-6.21,1-2.07,1.88-3.56,2.64-4.48,1.99-3.98,4.52-7.13,7.59-9.43,3.06-2.3,6.44-4.14,10.11-5.52,5.98-2.14,13.48-3.52,22.53-4.14,9.04-.61,18.08-.19,27.13,1.26,9.04,1.46,17.2,4.02,24.48,7.7,7.28,3.68,12.22,8.74,14.83,15.17,1.53,5.06,1.95,10,1.26,14.83s-2.15,9.31-4.37,13.45c-2.22,4.14-5.1,7.97-8.62,11.49-3.53,3.53-7.36,6.59-11.49,9.2-.31,.31-.61,.54-.92,.69-.31,.16-.77,.38-1.38,.69,2.6,1.07,5.06,2.11,7.36,3.1,2.3,1,4.52,2.34,6.67,4.02,2.6,1.99,4.83,4.41,6.67,7.24,1.84,2.84,3.06,5.71,3.68,8.62,1.53,5.06,1.84,10.08,.92,15.06-.92,4.98-2.22,9.54-3.91,13.68-2.3,4.6-5.02,9.08-8.16,13.45-3.14,4.37-6.55,8.08-10.23,11.15-9.5,10.57-20.27,18.73-32.3,24.48-12.03,5.75-24.79,9.46-38.27,11.15-4.6,.15-8.89,.08-12.87-.23-3.99-.31-7.66-1.15-11.03-2.53-3.37-1.38-6.44-3.37-9.2-5.98-2.76-2.61-5.21-6.13-7.36-10.57-3.07-4.6-5.71-9.31-7.93-14.14-2.22-4.83-3.68-9.62-4.37-14.37-.69-4.75-.34-9.2,1.03-13.33s4.14-7.82,8.28-11.03c2.91-2.6,5.94-4.94,9.08-7.01,3.14-2.07,6.7-3.48,10.69-4.25,.77-.31,1.42-.58,1.95-.8,.54-.23,1.19-.34,1.95-.34h.69c-.77,.77-1.38,1.53-1.84,2.3-.46,.77-.92,1.38-1.38,1.84-2.61,3.22-5.14,6.82-7.59,10.8-2.45,3.99-4.33,8.12-5.63,12.41-1.3,4.29-1.88,8.58-1.72,12.87,.15,4.29,1.45,8.2,3.91,11.72,2.14,3.07,4.71,5.4,7.7,7.01,2.99,1.61,6.21,2.68,9.65,3.22,3.45,.54,6.93,.69,10.46,.46,3.52-.23,6.9-.58,10.11-1.04,10.42-1.99,19.88-5.52,28.39-10.57,8.51-5.06,16.36-11.18,23.56-18.39,1.84-2.14,3.79-4.56,5.86-7.24,2.07-2.68,3.98-5.44,5.75-8.28,1.76-2.83,3.29-5.75,4.6-8.74,1.3-2.99,2.18-5.86,2.64-8.62-.77-4.29-2.18-7.55-4.25-9.77-2.07-2.22-4.87-3.71-8.39-4.48-3.53-.77-7.78-1.04-12.76-.8-4.98,.23-10.69,.65-17.13,1.26-2.15,.31-4.37,.5-6.67,.58-2.3,.08-4.6,.27-6.9,.57-.15,0-.38,.16-.69,.46-.15,.15-.31,.23-.46,.23-4.91,9.19-9.58,18.54-14.02,28.04-4.45,9.5-9.88,18.31-16.32,26.44-.31,.46-1.03,1.49-2.18,3.1s-2.38,3.07-3.68,4.37c-1.3,1.3-2.57,2.07-3.79,2.3-1.23,.23-1.99-.8-2.3-3.1-.77-1.53-1.07-3.56-.92-6.09,.15-2.53,.54-5.17,1.15-7.93,.61-2.76,1.34-5.4,2.18-7.93,.84-2.53,1.49-4.48,1.95-5.86,.77-2.76,1.53-5.48,2.3-8.16,.77-2.68,1.68-5.32,2.76-7.93,3.37-6.74,6.55-13.41,9.54-20,2.99-6.59,6.24-13.1,9.77-19.54,1.84-3.98,3.71-7.89,5.63-11.72,1.91-3.83,3.87-7.59,5.86-11.26,1.38-2.14,3.14-3.25,5.29-3.33,2.14-.08,4.17,.54,6.09,1.84,1.91,1.3,3.52,3.07,4.83,5.29,1.3,2.22,1.8,4.64,1.49,7.24-.77,3.07-1.76,5.94-2.99,8.62-1.23,2.68-2.45,5.33-3.68,7.93Z"/>
      <path d="M208.1,556.51c-1.38,1.07-2.91,2.26-4.6,3.56-1.69,1.3-3.53,2.45-5.52,3.45-1.99,1-4.1,1.76-6.32,2.3-2.22,.54-4.56,.58-7.01,.12-1.84-.31-3.53-.96-5.06-1.95-1.53-1-2.99-2.18-4.37-3.56-1.38-1.38-2.22-3.37-2.53-5.98-.31-2.6-.38-4.67-.23-6.21,.77-3.98,1.84-8.2,3.22-12.64,1.38-4.44,3.07-8.81,5.06-13.1,3.37-7.05,7.66-13.33,12.87-18.85,5.21-5.52,11.49-9.04,18.85-10.57,2.45-.61,5.02-.73,7.7-.34,2.68,.38,5.02,1.26,7.01,2.64,1.99,1.38,3.52,3.1,4.6,5.17,1.07,2.07,1.3,4.33,.69,6.78-.31,.92-.65,1.84-1.03,2.76-.38,.92-.84,1.69-1.38,2.3-.54,.61-1.03,.96-1.49,1.03-.46,.08-.92-.34-1.38-1.26-.15-.46-.35-1.11-.57-1.95-.23-.84-.57-1.68-1.03-2.53-.46-.84-1.11-1.61-1.95-2.3-.84-.69-1.95-1.03-3.33-1.03-2.91,0-6.21,1.8-9.88,5.4-3.68,3.6-7.21,7.82-10.57,12.64-3.37,4.83-6.29,9.65-8.74,14.48-2.45,4.83-3.99,8.47-4.6,10.92-.92,3.99-.84,6.09,.23,6.32,1.07,.23,2.76-.61,5.06-2.53,2.3-1.91,4.9-4.56,7.82-7.93,2.91-3.37,5.67-6.7,8.28-10,2.6-3.29,4.86-6.21,6.78-8.74,1.91-2.53,2.95-3.87,3.1-4.02,1.99-1.53,3.98-2.22,5.98-2.07,1.99,.15,3.71,.88,5.17,2.18,1.45,1.3,2.45,2.91,2.99,4.83,.54,1.92,.34,3.87-.57,5.86-1.07,2.45-2.49,5.37-4.25,8.74-1.76,3.37-2.87,6.36-3.33,8.97-.46,3.99,0,6.59,1.38,7.82,1.38,1.23,3.91,1.15,7.59-.23,2.91-1.23,5.98-3.41,9.19-6.55,3.22-3.14,6.4-6.47,9.54-10,3.14-3.52,6.09-6.9,8.85-10.11,2.76-3.22,5.06-5.59,6.9-7.13,.46-.46,1.03-.96,1.72-1.49,.69-.54,1.26-.65,1.72-.35,.77,.31,1.19,.73,1.26,1.26,.08,.54,.12,1.11,.12,1.72-1.99,4.91-4.37,9.73-7.13,14.48-2.76,4.75-5.86,9.16-9.31,13.22-3.45,4.06-7.28,7.67-11.49,10.8-4.22,3.14-8.77,5.63-13.68,7.47-3.07,1.07-5.83,1.42-8.28,1.03-2.45-.38-4.68-1.26-6.67-2.64-1.99-1.38-3.6-3.14-4.83-5.29-1.23-2.14-2.07-4.44-2.53-6.9Z"/>
      <path d="M278.21,543.87c-3.07-4.29-6.09-8.66-9.08-13.1-2.99-4.44-4.48-9.35-4.48-14.71,0-5.98,1.72-11.61,5.17-16.9s7.39-9.54,11.84-12.76c1.84-1.22,3.71-2.22,5.63-2.99,1.91-.76,3.94-.69,6.09,.23,.92,.46,1.88,.8,2.87,1.03,1,.23,1.88,.5,2.64,.8,.77,.31,1.61,.77,2.53,1.38,.92,.61,1.38,1.46,1.38,2.53,0,4.29,.11,7.78,.34,10.46,.23,2.68,.57,4.98,1.03,6.9,.46,1.92,.92,3.6,1.38,5.06,.46,1.46,.92,3.03,1.38,4.71,.31,1.53,.23,2.84-.23,3.91-.46,1.07-1.61,1.23-3.45,.46-3.37-1.23-5.86-3.68-7.47-7.36-1.61-3.68-2.8-7.05-3.56-10.11-.15-.61-.54-1.68-1.15-3.22-.61-1.53-1-2.6-1.15-3.22-1.23-.31-2.68,.11-4.37,1.26-1.69,1.15-3.18,2.72-4.48,4.71-1.3,1.99-2.15,4.29-2.53,6.9-.38,2.61,.12,5.21,1.49,7.82,.61,.92,1.49,2.03,2.64,3.33,1.15,1.3,2.3,2.64,3.45,4.02,1.15,1.38,2.3,2.72,3.45,4.02,1.15,1.3,2.1,2.34,2.87,3.1,.92,.92,1.53,1.42,1.84,1.49,.31,.08,1.07-.12,2.3-.57,1.53-.77,3.87-1.76,7.01-2.99,3.14-1.22,6.44-2.45,9.88-3.68,3.45-1.22,6.74-2.26,9.88-3.1,3.14-.84,5.55-1.26,7.24-1.26,1.07,0,1.84,.38,2.3,1.15,.46,.46,.38,1.07-.23,1.84-.61,.77-1.42,1.53-2.41,2.3-1,.77-2.03,1.46-3.1,2.07-1.07,.61-1.76,1-2.07,1.15-2.61,1.53-5.9,3.26-9.88,5.17-3.99,1.92-7.44,3.79-10.34,5.63-.31,.31-.88,.61-1.72,.92-.84,.31-1.49,.61-1.95,.92,1.84,4.14,3.14,7.7,3.91,10.69,.76,2.99,1.03,5.86,.8,8.62s-.8,5.56-1.72,8.39c-.92,2.83-2.15,6.09-3.68,9.77-2.15,3.52-4.33,6.9-6.55,10.12-2.22,3.22-4.71,6.13-7.47,8.74-2.76,2.6-5.75,4.67-8.96,6.21-3.22,1.53-6.75,2.3-10.57,2.3-2.14,0-4.21-.27-6.21-.8-1.99-.54-3.68-1.65-5.06-3.33-3.52-3.83-5.52-8.01-5.98-12.53-.46-4.52-.08-9,1.15-13.45,.92-2.76,2.07-5.29,3.45-7.59,3.37-5.82,7.09-10.77,11.15-14.83,4.06-4.06,8.31-7.93,12.76-11.61Zm7.82,10.34c-1.69,1.69-3.99,4.1-6.9,7.24-2.91,3.14-5.63,6.55-8.16,10.23s-4.6,7.32-6.21,10.92c-1.61,3.6-2.03,6.7-1.26,9.31,3.06-1.38,6.21-3.64,9.43-6.78,3.22-3.14,6.05-6.59,8.51-10.34,2.45-3.76,4.17-7.47,5.17-11.15,1-3.68,.8-6.82-.57-9.42Z"/>
      <path d="M321.89,550.08c-.31-5.82,.31-11.88,1.84-18.16,1.53-6.28,3.83-12.07,6.9-17.36,3.06-5.29,6.93-9.62,11.61-12.99,4.67-3.37,10.15-5.13,16.44-5.29,3.22,.77,5.71,2.38,7.47,4.83,1.76,2.45,2.26,5.44,1.49,8.96-.61,3.37-1.49,6.25-2.64,8.62-1.15,2.38-3.1,4.87-5.86,7.47-1.38,1.23-3.3,2.84-5.75,4.83-2.45,1.99-4.83,4.06-7.13,6.21-2.3,2.15-4.29,4.33-5.98,6.55-1.69,2.22-2.53,4.1-2.53,5.63-.46,3.99,.15,6.55,1.84,7.7,1.68,1.15,3.87,1.61,6.55,1.38,2.68-.23,5.4-.96,8.16-2.18,2.76-1.23,4.98-2.3,6.67-3.22,1.99-1.38,4.21-3.1,6.67-5.17,2.45-2.07,4.9-4.25,7.36-6.55,2.45-2.3,4.83-4.52,7.13-6.67,2.3-2.14,4.21-3.91,5.75-5.29,1.23-1.22,2.33-2.37,3.33-3.45,1-1.07,2.18-1.99,3.56-2.76,1.23-.31,2.18-.38,2.87-.23,.69,.15,.57,1.3-.34,3.45-1.23,2.61-2.72,5.06-4.48,7.36-1.76,2.3-3.64,4.6-5.63,6.9-2.76,3.07-5.71,6.29-8.85,9.65-3.14,3.37-6.44,6.48-9.88,9.31-3.45,2.84-7.05,5.29-10.8,7.36-3.76,2.07-7.63,3.41-11.61,4.02-7.05,.46-12.84-1-17.36-4.37-4.52-3.37-6.78-8.89-6.78-16.55Zm36.78-43.22c-4.14,1.53-7.4,3.53-9.77,5.98-2.38,2.45-4.1,6.06-5.17,10.8,3.37-2.45,6.4-4.94,9.08-7.47,2.68-2.53,4.63-5.63,5.86-9.31Z"/>
      <path d="M554.34,406.46c6.11,.56,5.58,.66,8.11,1.89,2.53,1.23,9.5,3.09,4.25,6.44,0,0-26.66,7.6-33.22,12.08-1.93,1.31-4.02,2.22-5.86,3.45-8.89,5.67-17.21,11.72-24.94,18.16-7.74,6.44-14.83,13.41-21.26,20.92-4.29,4.91-8.28,10.15-11.95,15.75-3.68,5.6-6.86,11.42-9.54,17.47-2.68,6.06-4.75,12.22-6.21,18.5-1.46,6.29-2.11,12.57-1.95,18.85,.15,4.6,.69,8.93,1.61,12.99,.92,4.06,2.45,7.17,4.6,9.31,3.37,3.22,7.39,4.71,12.07,4.48,4.67-.23,9.73-1.61,15.17-4.14,5.44-2.53,11.15-6.01,17.13-10.46,5.98-4.44,11.84-9.31,17.59-14.6s11.26-10.8,16.55-16.55,10.08-11.22,14.37-16.44c1.07-.92,2.1-2.22,3.1-3.91,1-1.68,2.1-3.06,3.33-4.14,1.22-.77,2.26-.54,3.1,.69,.84,1.23,1.26,2.45,1.26,3.68-.31,6.59-1.72,12.61-4.25,18.05-2.53,5.44-5.56,10.46-9.08,15.06-4.29,5.52-9.35,11-15.17,16.44-5.83,5.44-12.03,10.38-18.62,14.83-6.59,4.45-13.41,8.05-20.46,10.8-7.05,2.76-13.87,4.14-20.46,4.14-5.83,0-10.84-1-15.06-2.99-4.22-1.99-7.82-4.64-10.8-7.93-2.99-3.29-5.44-7.09-7.36-11.38-1.92-4.29-3.41-8.81-4.48-13.56-.31-1.38-.57-2.95-.8-4.71-.23-1.76-.35-3.48-.35-5.17,0-7.97,.8-15.36,2.41-22.18,1.61-6.82,3.56-13.45,5.86-19.88,.92-2.91,2.14-5.75,3.68-8.51,4.44-9.35,10.15-18.35,17.13-27.01,6.97-8.66,14.71-16.55,23.22-23.68,8.51-7.13,17.51-13.37,27.01-18.74,9.5-5.36,9.5-4.99,16.95-6.21s17.22-2.33,23.33-1.78Z"/>
      <path d="M603.02,556.51c-1.38,1.07-2.91,2.26-4.6,3.56-1.69,1.3-3.53,2.45-5.52,3.45-1.99,1-4.1,1.76-6.32,2.3-2.22,.54-4.56,.58-7.01,.12-1.84-.31-3.53-.96-5.06-1.95-1.53-1-2.99-2.18-4.37-3.56-1.38-1.38-2.22-3.37-2.53-5.98-.31-2.6-.38-4.67-.23-6.21,.77-3.98,1.84-8.2,3.22-12.64,1.38-4.44,3.07-8.81,5.06-13.1,3.37-7.05,7.66-13.33,12.87-18.85,5.21-5.52,11.49-9.04,18.85-10.57,2.45-.61,5.02-.73,7.7-.34,2.68,.38,5.02,1.26,7.01,2.64,1.99,1.38,3.52,3.1,4.6,5.17,1.07,2.07,1.3,4.33,.69,6.78-.31,.92-.65,1.84-1.03,2.76-.38,.92-.84,1.69-1.38,2.3-.54,.61-1.03,.96-1.49,1.03-.46,.08-.92-.34-1.38-1.26-.15-.46-.35-1.11-.57-1.95-.23-.84-.57-1.68-1.03-2.53-.46-.84-1.11-1.61-1.95-2.3-.84-.69-1.95-1.03-3.33-1.03-2.91,0-6.21,1.8-9.88,5.4-3.68,3.6-7.21,7.82-10.57,12.64-3.37,4.83-6.29,9.65-8.74,14.48-2.45,4.83-3.99,8.47-4.6,10.92-.92,3.99-.84,6.09,.23,6.32,1.07,.23,2.76-.61,5.06-2.53,2.3-1.91,4.9-4.56,7.82-7.93,2.91-3.37,5.67-6.7,8.28-10,2.6-3.29,4.86-6.21,6.78-8.74,1.91-2.53,2.95-3.87,3.1-4.02,1.99-1.53,3.98-2.22,5.98-2.07,1.99,.15,3.71,.88,5.17,2.18,1.45,1.3,2.45,2.91,2.99,4.83,.54,1.92,.34,3.87-.57,5.86-1.07,2.45-2.49,5.37-4.25,8.74-1.76,3.37-2.87,6.36-3.33,8.97-.46,3.99,0,6.59,1.38,7.82,1.38,1.23,3.91,1.15,7.59-.23,2.91-1.23,5.98-3.41,9.19-6.55,3.22-3.14,6.4-6.47,9.54-10,3.14-3.52,6.09-6.9,8.85-10.11,2.76-3.22,5.06-5.59,6.9-7.13,.46-.46,1.03-.96,1.72-1.49,.69-.54,1.26-.65,1.72-.35,.77,.31,1.19,.73,1.26,1.26,.08,.54,.12,1.11,.12,1.72-1.99,4.91-4.37,9.73-7.13,14.48-2.76,4.75-5.86,9.16-9.31,13.22-3.45,4.06-7.28,7.67-11.49,10.8-4.22,3.14-8.77,5.63-13.68,7.47-3.07,1.07-5.83,1.42-8.28,1.03-2.45-.38-4.68-1.26-6.67-2.64-1.99-1.38-3.6-3.14-4.83-5.29-1.23-2.14-2.07-4.44-2.53-6.9Z"/>
      <path d="M697.5,521.34c-6.44,7.21-12.45,14.48-18.05,21.84-5.6,7.36-11.07,14.71-16.44,22.07-1.23,1.07-2.3,1.53-3.22,1.38-.92-.15-1.72-.61-2.41-1.38-.69-.77-1.23-1.72-1.61-2.87-.38-1.15-.65-2.18-.8-3.1-.31-2.76-.31-5.78,0-9.08,.31-3.29,.61-5.4,.92-6.32,.61-2.6,1.42-5.59,2.41-8.96,1-3.37,2.03-6.78,3.1-10.23,1.07-3.45,2.1-6.82,3.1-10.12,1-3.29,1.95-6.24,2.87-8.85,.61-1.84,1.68-2.95,3.22-3.33,1.53-.38,3.02-.15,4.48,.69,1.45,.84,2.6,2.26,3.45,4.25,.84,1.99,.96,4.52,.34,7.59-.61,3.07-1.3,6.13-2.07,9.2-.77,3.07-1.46,6.06-2.07,8.97,4.44-4.9,8.85-10,13.22-15.29s8.62-10.54,12.76-15.75c1.99-1.38,4.06-1.68,6.21-.92,2.14,.77,3.75,2.45,4.83,5.06,1.22,2.76,1.76,5.6,1.61,8.51-.15,2.91-.54,5.67-1.15,8.28,4.44-4.6,9.66-9.12,15.63-13.56,5.98-4.44,11.8-7.82,17.47-10.11,2.76-1.07,5.29-1.23,7.59-.46,2.3,.77,4.29,2.18,5.98,4.25,1.68,2.07,2.95,4.6,3.79,7.59,.84,2.99,1.19,6.09,1.03,9.31-1.84,3.83-3.6,7.55-5.29,11.15-1.69,3.6-3.22,7.17-4.6,10.69-1.38,3.53-2.49,7.05-3.33,10.57-.84,3.53-1.19,7.13-1.03,10.8,1.07,.77,2.87,.31,5.4-1.38,2.53-1.68,5.4-3.91,8.62-6.67,3.22-2.76,6.55-5.67,10-8.74,3.45-3.06,6.47-5.67,9.08-7.82,7.51-5.98,11.65-8.51,12.41-7.59,.77,.92-1.38,4.37-6.44,10.34-4.91,5.83-10.08,11.57-15.52,17.24-5.44,5.67-11.23,10.58-17.36,14.71-1.99,1.38-4.29,2.1-6.9,2.18-2.61,.08-5.17-.38-7.7-1.38-2.53-1-4.71-2.53-6.55-4.6-1.84-2.07-2.91-4.63-3.22-7.7-.46-3.98-.19-8.2,.8-12.64,.99-4.44,2.33-8.85,4.02-13.22,1.68-4.37,3.6-8.62,5.75-12.76,2.14-4.14,4.14-7.97,5.98-11.49-.46-1.22-2.18-.8-5.17,1.26-2.99,2.07-6.63,4.94-10.92,8.62-4.29,3.68-8.81,7.82-13.56,12.41-4.75,4.6-9.12,8.81-13.1,12.64-1.69,1.53-2.95,2.49-3.79,2.87-.84,.38-1.57,.58-2.18,.58-1.53,0-2.53-1.26-2.99-3.79-.46-2.53-.65-5.44-.57-8.74,.08-3.29,.34-6.51,.8-9.66,.46-3.14,.84-5.32,1.15-6.55Z"/>
      <path d="M802.78,539.73c-4.45,9.96-8.47,19.58-12.07,28.85-3.6,9.27-7.01,18.39-10.23,27.36-3.22,8.97-6.4,17.93-9.54,26.9-3.14,8.97-6.55,18.2-10.23,27.7-.15,.46-.35,1.07-.57,1.84-.23,.76-.65,1.53-1.26,2.3-.92,1.22-1.65,1.84-2.18,1.84s-.96-.23-1.26-.69c-1.84-2.45-3.02-5.75-3.56-9.88-.54-4.14-.42-8.2,.34-12.18,1.38-7.36,3.26-15.1,5.63-23.22,2.38-8.12,4.98-16.36,7.82-24.71,2.84-8.35,5.86-16.78,9.08-25.29,3.22-8.5,6.44-16.82,9.65-24.94,3.83-9.2,7.43-17.7,10.8-25.52,3.37-7.82,6.74-15.48,10.11-22.99,1.22-1.84,2.83-2.57,4.83-2.18,1.99,.38,3.83,1.42,5.52,3.1,1.68,1.69,2.99,3.76,3.91,6.21,.92,2.45,1.07,4.75,.46,6.9-1.84,4.91-3.87,9.42-6.09,13.56-2.22,4.14-4.18,8.43-5.86,12.87,5.36-5.21,10.73-10.19,16.09-14.94,5.36-4.75,11.49-7.97,18.39-9.65,3.06-.46,5.55-.31,7.47,.46,1.91,.77,3.45,1.92,4.6,3.45,1.15,1.53,1.99,3.37,2.53,5.52,.54,2.15,.96,4.29,1.26,6.44,.15-.31,.42-.42,.8-.34,.38,.08,.73-.04,1.03-.34,4.9-1.38,9.88-2.37,14.94-2.99,5.06-.61,10.04-.92,14.94-.92,2.45-.3,4.21,.08,5.29,1.15,1.07,1.07,.38,1.99-2.07,2.76-2.76,.77-5.67,1.49-8.74,2.18-3.07,.69-6.13,1.46-9.2,2.3-3.07,.84-6.02,1.72-8.85,2.64-2.84,.92-5.33,2.07-7.47,3.45-1.99,1.23-3.76,3.53-5.29,6.9-1.84,4.45-4.52,8.77-8.05,12.99-3.53,4.22-7.47,7.93-11.84,11.15-4.37,3.22-8.97,5.67-13.79,7.36-4.83,1.69-9.54,2.15-14.14,1.38-2.76-.76-4.6-2.41-5.52-4.94-.92-2.53-1.53-5.09-1.84-7.7,0-2.76,1.15-4.14,3.45-4.14,.77-.46,1.38-.8,1.84-1.04,.46-.23,.92-.73,1.38-1.49,1.53-2.76,3.52-5.29,5.98-7.59,4.9-4.14,10.08-7.66,15.52-10.57,5.44-2.91,10.84-5.36,16.21-7.36,2.14-.61,3.37-1.15,3.68-1.61,.31-.46,.61-1.76,.92-3.91-.31-3.06-1.65-5.13-4.02-6.21-2.38-1.07-6.02-.3-10.92,2.3-2.3,1.38-4.79,3.14-7.47,5.29-2.68,2.15-5.37,4.41-8.05,6.78-2.68,2.38-5.25,4.75-7.7,7.13-2.45,2.38-4.68,4.48-6.67,6.32Zm6.9,11.26c1.53,.77,3.75,.77,6.67,0,2.91-.76,5.9-1.99,8.97-3.68,3.06-1.68,5.94-3.68,8.62-5.98,2.68-2.3,4.71-4.6,6.09-6.9-5.37,2.15-10.54,4.56-15.52,7.24-4.98,2.68-9.92,5.79-14.83,9.31Z"/>
    </g>
  </g>
  <g id="Layer_3" data-name="Layer 3">
    <g>
      <path d="M264.77,643.78c.69-4.74,2.31-8.89,4.87-12.43,2.56-3.54,5.73-6.54,9.51-9.01,3.78-2.46,7.99-4.44,12.61-5.92,4.62-1.48,9.35-2.55,14.18-3.21,4.83-.66,9.57-1.01,14.23-1.03,4.66-.02,8.89,.2,12.7,.69,3.98,.5,8.09,1.33,12.34,2.49,4.25,1.15,8.28,2.61,12.1,4.37,3.82,1.76,7.31,3.87,10.47,6.33,3.16,2.46,5.63,5.28,7.43,8.45,1.79,3.17,2.77,6.72,2.93,10.65,.16,3.93-.81,8.27-2.9,13.01-2.06,4.48-5.11,8.4-9.13,11.76-4.03,3.36-8.56,6.14-13.58,8.36-5.03,2.22-10.31,3.9-15.86,5.04s-10.89,1.7-16.03,1.66c-5.14-.03-9.83-.61-14.08-1.72-4.25-1.11-7.56-2.78-9.91-5.01-1.32,2.12-2.7,4.27-4.11,6.46-1.42,2.19-2.84,4.58-4.27,7.17-1.43,2.59-2.88,5.41-4.37,8.48-1.49,3.06-2.95,6.48-4.4,10.25-.24,.5-.48,1.01-.72,1.56-.25,.54-.52,.97-.82,1.28-.3,.31-.63,.42-.97,.34-.34-.09-.64-.54-.88-1.36-.93-2.4-1.25-5.39-.97-8.95,.27-3.57,.94-7.26,2-11.08,1.05-3.82,2.38-7.52,3.98-11.1,1.59-3.58,3.26-6.66,4.99-9.25,.41-.48,.74-.96,.98-1.46,.24-.5,.13-.99-.34-1.49-3.23-.15-6.21-.96-8.92-2.45-2.71-1.48-5.06-3.41-7.05-5.77-1.99-2.36-3.51-5.04-4.58-8.03-1.07-2.99-1.54-6.02-1.42-9.08Zm88.09,18.41c5.18-3.47,8.91-6.85,11.17-10.12s3.38-6.36,3.35-9.26c-.03-2.9-1.03-5.6-3-8.09-1.97-2.49-4.53-4.68-7.67-6.57-3.14-1.89-6.77-3.43-10.88-4.61-4.11-1.18-8.3-1.95-12.56-2.32-5.48-.43-11.09-.37-16.83,.17-5.74,.55-11.06,1.63-15.96,3.25-4.91,1.62-9.19,3.84-12.84,6.68-3.65,2.83-6.14,6.32-7.45,10.46-1.15,3.54-1.04,7.3,.35,11.25,1.39,3.96,4.45,7.68,9.19,11.18,2.8-4.74,5.08-8.52,6.84-11.33,1.76-2.81,3.14-5.01,4.13-6.59,.99-1.59,1.73-2.75,2.22-3.47,.49-.73,.94-1.37,1.37-1.94,.92-1.02,2.07-1.27,3.46-.75,1.38,.53,2.63,1.45,3.73,2.78,1.1,1.33,1.9,2.88,2.38,4.65,.48,1.77,.27,3.4-.62,4.86-1.22,1.96-2.36,3.72-3.44,5.3-1.08,1.58-2.11,3.12-3.09,4.62-.98,1.5-2.01,3.04-3.09,4.62-1.08,1.58-2.23,3.34-3.44,5.3,3.47,.35,7.52,.47,12.15,.35,4.63-.12,9.36-.55,14.2-1.3,4.84-.75,9.55-1.87,14.13-3.35,4.58-1.48,8.65-3.41,12.2-5.77Z"/>
      <path d="M406.72,675.21c-3.38,1.33-6.52,3.39-9.44,6.18-2.92,2.79-5.7,5.92-8.34,9.37-2.64,3.46-5.23,7.05-7.75,10.77-2.52,3.73-5.04,7.19-7.54,10.39-.73,.75-1.57,.93-2.51,.54-.94-.39-1.52-1.1-1.74-2.11-.22-1.01-.08-2.08,.41-3.19,.7-2.06,1.4-4.39,2.08-6.97,.69-2.59,1.35-5.31,2.01-8.16,.65-2.85,1.33-5.7,2.02-8.55,.7-2.85,1.41-5.56,2.14-8.15,.21-.69,.64-1.21,1.31-1.58s1.4-.55,2.19-.56c.79,0,1.47,.18,2.07,.55,.59,.38,.96,.92,1.1,1.62,.27,1.76,.07,3.84-.61,6.26-.68,2.41-1.42,4.78-2.22,7.1,1.65-1.84,3.47-4.01,5.46-6.49,1.99-2.48,4.14-4.79,6.46-6.91,2.32-2.12,4.76-3.84,7.3-5.17s5.16-1.79,7.85-1.41c1.37,.5,2.45,1.27,3.23,2.31,.78,1.04,1.36,2.2,1.74,3.48,.38,1.28,.56,2.53,.55,3.75-.01,1.22-.17,2.26-.47,3.12-.67,1.19-1.44,2.49-2.34,3.89-.89,1.4-1.61,2.83-2.16,4.29-.55,1.46-.81,2.91-.79,4.35,.02,1.44,.66,2.76,1.92,3.95,.49,.72,.42,1.24-.2,1.56-.63,.32-1.46,.48-2.51,.48-1.05,0-2.09-.16-3.12-.47s-1.76-.73-2.17-1.28c-1.31-1.98-2.07-3.96-2.28-5.93-.22-1.97-.06-3.95,.46-5.93,.53-1.98,1.31-3.91,2.36-5.78,1.04-1.87,2.21-3.65,3.51-5.34Z"/>
      <path d="M449.29,687.8c1.05-.08,2.18-.33,3.41-.76,1.22-.43,2.36-.77,3.41-1.02,1.22-.34,2.51-.74,3.87-1.21,1.35-.47,2.64-.83,3.87-1.08,.87,0,1.22,.25,1.04,.73-.18,.48-.6,1.04-1.26,1.69-.66,.65-1.41,1.28-2.24,1.88-.83,.6-1.47,1.03-1.91,1.29-2.1,.94-4.18,1.67-6.23,2.17-2.05,.51-4,1.23-5.84,2.18-.8,1.39-1.9,3.23-3.31,5.53-1.41,2.3-2.98,4.53-4.7,6.7-1.72,2.17-3.52,4.02-5.41,5.58-1.89,1.55-3.7,2.32-5.45,2.31-2.44-.02-4.53-.73-6.26-2.14-1.3-.88-2.27-2.24-2.91-4.08-.64-1.84-1.02-3.82-1.13-5.96-.11-2.14-.03-4.23,.25-6.27,.28-2.04,.6-3.72,.96-5.03,.09-.61,.23-1.02,.4-1.24,.18-.22,.35-.37,.53-.45,.18-.08,.37-.17,.59-.26,.22-.08,.42-.26,.59-.52,.27-.96,.54-1.96,.81-3s.67-2,1.2-2.87c1.5-2.6,3.42-5.01,5.75-7.21,2.33-2.21,5.02-3.47,8.07-3.79,1.92-.33,3.68-.23,5.29,.3,1.61,.54,3.02,1.55,4.23,3.04,1.04,1.14,1.77,2.39,2.19,3.75,.42,1.36,.68,2.67,.75,3.93,.08,1.27,.02,2.42-.16,3.46-.18,1.04-.32,1.83-.41,2.35Zm-19.26,21.29c.87-.17,1.86-.79,2.96-1.87,1.1-1.08,2.15-2.31,3.17-3.7,1.01-1.38,1.9-2.8,2.65-4.23,.75-1.43,1.26-2.63,1.53-3.58-1.75,.16-3.62,.23-5.62,.22-2.01-.02-3.88-.21-5.62-.57-.27,.78-.45,1.81-.55,3.07-.1,1.26-.11,2.57-.03,3.92,.08,1.35,.24,2.64,.49,3.86,.25,1.22,.59,2.19,1.02,2.89Zm11.8-20.04c.17,0,.35-.08,.53-.26,.17-.17,.26-.35,.27-.52,.71-1.65,1.05-3.48,1.02-5.48-.03-2-.65-3.62-1.86-4.85-.6-.7-1.39-1.1-2.34-1.2-.96-.09-1.88,.07-2.75,.5-1.75,1.03-3.16,2.24-4.21,3.63-1.06,1.39-2.07,2.82-3.04,4.29,0,.44,.08,.74,.25,.92,.86,.79,1.25,1.67,1.16,2.62,0,.44,.49,.7,1.5,.8,1,.1,2.13,.13,3.4,.09,1.26-.03,2.49-.13,3.66-.3,1.18-.16,1.98-.25,2.42-.24Z"/>
      <path d="M488.21,676.76c0-.17,.03-.31,.12-.4,0-.09,.04-.13,.13-.14,2.51-5.84,5-11.48,7.48-16.93,2.48-5.45,5-10.7,7.58-15.76,2.58-5.06,5.29-9.95,8.14-14.67,2.85-4.72,5.9-9.31,9.15-13.78,1.84-2.24,3.36-3.25,4.54-3.03,1.19,.22,2.08,1.09,2.7,2.59,.62,1.51,1,3.3,1.16,5.39,.16,2.09,.17,3.79,.04,5.1-1.13,5.45-2.71,10.91-4.75,16.38-2.04,5.48-4.37,10.94-6.97,16.39-2.61,5.45-5.44,10.89-8.48,16.31-3.05,5.42-6.13,10.85-9.27,16.27-.42,.54-.73,1.09-.93,1.67-.2,.58-.37,1.21-.52,1.92-.15,.79-.31,1.91-.48,3.35-.17,1.45-.25,2.95-.24,4.52,0,1.57,.17,3,.47,4.3,.31,1.3,.81,2.11,1.52,2.43,1.06,.49,2.58,.33,4.56-.48,1.98-.81,4.07-1.99,6.29-3.55,2.21-1.56,4.44-3.33,6.69-5.33,2.24-1.99,4.16-3.89,5.76-5.69,.17-.18,.43-.17,.79,.04,.35,.21,.65,.52,.88,.95,.23,.43,.34,.93,.31,1.49-.03,.57-.33,1.12-.93,1.67-1.95,1.81-4.33,4.09-7.16,6.85-2.83,2.76-5.8,5.32-8.9,7.69-3.11,2.37-6.16,4.2-9.17,5.48-3.01,1.28-5.62,1.39-7.84,.33-2.04-.98-3.51-2.61-4.42-4.89-.91-2.28-1.45-4.79-1.63-7.53-.18-2.74-.16-5.45,.05-8.11,.22-2.67,.43-4.79,.64-6.37-.17,.18-.31,.43-.43,.73-.12,.31-.26,.6-.43,.86-1.17,1.44-2.51,3.16-4.01,5.17s-3.16,3.88-4.98,5.6c-1.82,1.72-3.76,3.05-5.82,3.99-2.06,.94-4.2,1.06-6.4,.35-1.24-.66-2.34-1.47-3.29-2.44-.95-.97-1.45-2.28-1.51-3.94-.11-3.22,.42-6.51,1.57-9.87,1.15-3.35,2.77-6.35,4.87-9,2.09-2.64,4.59-4.78,7.5-6.4,2.91-1.62,6.07-2.36,9.48-2.22,.96,.14,1.95,.35,2.96,.62,1.01,.27,1.88,.79,2.6,1.55l.54,.51Zm-19.85,20.42l.27,.38c2.88-2.45,5.79-4.88,8.72-7.29,2.93-2.41,5.97-4.8,9.11-7.17-1.86-.81-3.85-.85-5.96-.13-2.11,.73-4.08,1.88-5.9,3.47-1.82,1.59-3.33,3.38-4.53,5.38-1.2,2-1.77,3.79-1.72,5.36Zm56.49-67.18c-5.21,8.64-9.79,17.47-13.76,26.5-3.97,9.03-7.41,18.35-10.31,27.95,1.88-3.73,4.11-7.99,6.7-12.79s5.1-9.7,7.55-14.71c2.45-5.01,4.59-9.88,6.44-14.61,1.85-4.73,2.97-8.84,3.38-12.35Z"/>
      <path d="M580.6,681.05h.13s.09,1.03,.09,1.03c-.6,3.2-1.69,6.14-3.3,8.82-.62,.93-1.36,2.24-2.21,3.94-.86,1.7-1.64,3.05-2.33,4.08-1.65,2.16-3.21,4.07-4.68,5.73-1.47,1.66-3.29,3.2-5.44,4.61-1,.61-2.11,1.17-3.33,1.67-1.23,.5-2.47,.81-3.73,.92-1.26,.11-2.47,0-3.64-.34-1.17-.34-2.19-1.03-3.07-2.09-1.54-1.61-2.48-3.61-2.82-5.99-.34-2.38-.14-4.87,.59-7.47-.16,.19-.4,.47-.71,.85-.32,.38-.67,.8-1.07,1.27-.4,.47-.77,.92-1.13,1.35-.36,.42-.62,.69-.78,.79-1.19,1.42-2.39,2.66-3.61,3.73-1.22,1.07-2.49,2.01-3.82,2.83-1.08,.62-2.03,1.01-2.85,1.17-.82,.16-1.59,.07-2.32-.26-.73-.33-1.45-.86-2.17-1.58s-1.52-1.57-2.39-2.55c-1.26-1.46-2.25-2.93-2.95-4.4-.7-1.47-.95-3.09-.75-4.86,.12-.62,.22-1.24,.3-1.86,.08-.62,.22-1.2,.44-1.74,.39-1.52,.87-3.27,1.44-5.25,.57-1.97,1.16-3.95,1.78-5.93,.61-1.98,1.22-3.85,1.81-5.61,.59-1.76,1.1-3.18,1.53-4.27,.47-1.62,1.31-2.48,2.53-2.58,1.21-.11,2.36,.27,3.45,1.14,1.08,.87,1.95,2.06,2.61,3.58,.66,1.52,.66,3.05,0,4.59-.34,1.08-.87,2.62-1.57,4.6-.7,1.99-1.42,4.04-2.15,6.16-.73,2.12-1.37,4.12-1.9,6.01-.54,1.88-.81,3.27-.82,4.14,.17,1.91,.62,2.88,1.37,2.9,.74,.02,1.7-.54,2.87-1.7,1.17-1.15,2.43-2.73,3.79-4.73,1.35-2,2.72-4.11,4.1-6.33,1.38-2.22,2.66-4.37,3.83-6.44,1.17-2.07,2.19-3.76,3.04-5.06,1.02-2.28,1.88-4.3,2.55-6.06,.68-1.77,1.77-3.54,3.27-5.34,.84-.42,1.88-.45,3.14-.08,1.26,.37,2.4,.99,3.44,1.86,1.04,.87,1.81,1.88,2.3,3.01,.49,1.14,.47,2.17-.06,3.09-1.39,2.14-2.65,3.95-3.79,5.45-1.14,1.5-2.18,3.39-3.11,5.65-.49,1.44-1.05,3.05-1.68,4.81s-1.2,3.56-1.69,5.4c-.5,1.84-.86,3.62-1.11,5.35-.24,1.73-.22,3.24,.07,4.52,.13,1.48,.92,2.02,2.37,1.63,2.05-.53,4.26-1.84,6.61-3.93,2.35-2.09,4.64-4.43,6.87-7.03,2.22-2.6,4.27-5.14,6.16-7.63,1.88-2.48,3.38-4.34,4.5-5.58Z"/>
      <path d="M615.43,675.61c.89-.56,1.48-.62,1.76-.18,.28,.45,.3,1.04,.05,1.78-.38,1.11-.89,2.15-1.55,3.12-.66,.97-1.41,1.91-2.25,2.82-1.74,2.09-3.19,3.81-4.37,5.16-1.18,1.35-2.17,2.43-2.98,3.25-.81,.82-1.49,1.48-2.04,2-.55,.52-1.05,.98-1.52,1.4-1.82,1.48-3.62,2.92-5.41,4.31-1.79,1.39-3.51,2.46-5.17,3.22-2.57,1.15-5.18,1.53-7.83,1.14-2.65-.38-4.78-1.65-6.4-3.8-1.84-2.47-2.87-5.48-3.09-9.01-.22-3.53,.2-7.02,1.26-10.47s2.69-6.49,4.88-9.12c2.19-2.63,4.78-4.24,7.78-4.83,.93-.3,1.94-.16,3.03,.44,1.09,.6,1.84,1.35,2.23,2.27,.37,.74,.53,1.6,.49,2.57-.04,.98-.13,2.06-.28,3.27-.14,1.21-.29,2.53-.45,3.96-.16,1.43-.26,2.9-.32,4.4-.1,.54-.3,.86-.6,.94-.3,.09-.6-.07-.92-.47-1.15-1.34-1.93-2.66-2.33-3.97-.4-1.31-.81-2.55-1.24-3.72-.52,.07-1.12,.66-1.8,1.77-.69,1.11-1.31,2.45-1.89,4.02-.58,1.58-1.01,3.24-1.29,5-.29,1.75-.34,3.28-.16,4.58,.24,1.73,.68,2.99,1.31,3.78,.64,.79,1.36,1.22,2.16,1.29,.8,.07,1.7-.1,2.7-.5,1-.4,1.98-.93,2.95-1.59,4.28-2.79,8.37-5.71,12.26-8.75,3.89-3.04,7.57-6.39,11.03-10.03Z"/>
      <path d="M614.56,690.22c-.77-3.23-1.05-6.67-.84-10.35,.21-3.67,.9-7.15,2.07-10.42,1.17-3.27,2.89-6.09,5.16-8.46,2.27-2.37,5.15-3.92,8.65-4.65,1.88,.1,3.44,.74,4.68,1.93,1.24,1.19,1.82,2.81,1.76,4.86,0,1.95-.19,3.65-.59,5.09-.4,1.45-1.24,3.04-2.51,4.78-.65,.83-1.55,1.93-2.72,3.29-1.17,1.37-2.28,2.77-3.35,4.21-1.07,1.44-1.96,2.86-2.67,4.28-.72,1.42-.99,2.55-.84,3.41,.15,2.28,.76,3.65,1.82,4.12,1.06,.47,2.33,.5,3.81,.1,1.48-.4,2.92-1.09,4.34-2.06,1.42-.97,2.55-1.8,3.4-2.49,.97-.98,2.04-2.17,3.2-3.58,1.16-1.41,2.31-2.88,3.44-4.42,1.13-1.54,2.24-3.02,3.3-4.46,1.07-1.44,1.96-2.62,2.67-3.55,.56-.81,1.06-1.57,1.51-2.27,.45-.7,1.02-1.34,1.71-1.91,.65-.3,1.18-.44,1.58-.42,.4,.02,.46,.67,.16,1.96-.42,1.58-1,3.11-1.75,4.58-.75,1.47-1.56,2.95-2.44,4.44-1.23,2-2.55,4.1-3.96,6.31-1.41,2.21-2.94,4.29-4.57,6.23-1.64,1.94-3.4,3.68-5.29,5.23-1.89,1.54-3.92,2.69-6.08,3.44-3.9,.98-7.28,.76-10.16-.66-2.87-1.42-4.71-4.27-5.5-8.56Zm16.13-27.96c-2.16,1.28-3.77,2.73-4.85,4.35-1.08,1.62-1.67,3.81-1.78,6.58,1.63-1.72,3.07-3.42,4.31-5.11,1.24-1.69,2.01-3.63,2.32-5.81Z"/>
    </g>
  </g>
</svg>