<svg width="32" height="32" viewBox="0 0 32 32" fill="none" xmlns="http://www.w3.org/2000/svg">
<path d="M28.9562 24.3187L24.8075 4.59372C24.7538 4.33578 24.6497 4.09097 24.5012 3.87338C24.3526 3.65578 24.1626 3.46968 23.9419 3.32576C23.7212 3.18185 23.4742 3.08296 23.2152 3.03477C22.9562 2.98659 22.6902 2.99005 22.4325 3.04497L16.5812 4.30247C16.0637 4.4158 15.6118 4.72889 15.3239 5.17365C15.036 5.61842 14.9353 6.15887 15.0437 6.67747L19.1925 26.4025C19.285 26.8525 19.5295 27.257 19.8851 27.5479C20.2407 27.8388 20.6856 27.9985 21.145 28C21.287 27.9998 21.4286 27.9847 21.5675 27.955L27.4188 26.6975C27.9369 26.5839 28.3893 26.2702 28.6772 25.8246C28.9652 25.3791 29.0655 24.8379 28.9562 24.3187ZM17 6.26872C17 6.26122 17 6.25747 17 6.25747L22.85 5.00747L23.2663 6.99122L17.4163 8.24997L17 6.26872ZM17.8275 10.2025L23.68 8.94622L24.0975 10.9337L18.25 12.1912L17.8275 10.2025ZM18.6575 14.1487L24.51 12.8912L26.1725 20.7962L20.32 22.0537L18.6575 14.1487ZM27 24.7425L21.15 25.9925L20.7337 24.0087L26.5837 22.75L27 24.7312C27 24.7387 27 24.7425 27 24.7425ZM13 3.99997H7C6.46957 3.99997 5.96086 4.21069 5.58579 4.58576C5.21071 4.96083 5 5.46954 5 5.99997V26C5 26.5304 5.21071 27.0391 5.58579 27.4142C5.96086 27.7893 6.46957 28 7 28H13C13.5304 28 14.0391 27.7893 14.4142 27.4142C14.7893 27.0391 15 26.5304 15 26V5.99997C15 5.46954 14.7893 4.96083 14.4142 4.58576C14.0391 4.21069 13.5304 3.99997 13 3.99997ZM7 5.99997H13V7.99997H7V5.99997ZM7 9.99997H13V22H7V9.99997ZM13 26H7V24H13V26Z" fill="#696D7D"/>
</svg>
